<svg width="30" height="26" viewBox="0 0 30 26" fill="none" xmlns="http://www.w3.org/2000/svg">
<path fill-rule="evenodd" clip-rule="evenodd" d="M0 6C0 5.448 0.436906 5 0.975236 5H1.72029C2.82816 5 3.84148 5.64202 4.3369 6.65802L4.50362 7H17.0735C18.945 7 20.3356 8.777 19.929 10.651L18.8454 15.651C18.548 17.023 17.3612 18 15.99 18H7.4157C6.04452 18 4.85768 17.023 4.56023 15.651L2.97547 8.33698L2.5922 7.55298C2.42738 7.21398 2.08991 7 1.72029 7H0.975236C0.436906 7 0 6.552 0 6ZM5.11707 9L6.46386 15.217C6.56333 15.674 6.95929 16 7.4157 16H15.99C16.4464 16 16.8423 15.674 16.9418 15.217L18.0253 10.217C18.1608 9.59198 17.6976 9 17.0735 9H5.11707ZM7.80189 21C7.26356 21 6.82665 21.448 6.82665 22C6.82665 22.552 7.26356 23 7.80189 23C8.34022 23 8.77713 22.552 8.77713 22C8.77713 21.448 8.34022 21 7.80189 21ZM4.87618 22C4.87618 20.343 6.18592 19 7.80189 19C9.41786 19 10.7276 20.343 10.7276 22C10.7276 23.657 9.41786 25 7.80189 25C6.18592 25 4.87618 23.657 4.87618 22ZM15.6038 21C15.0655 21 14.6285 21.448 14.6285 22C14.6285 22.552 15.0655 23 15.6038 23C16.1421 23 16.579 22.552 16.579 22C16.579 21.448 16.1421 21 15.6038 21ZM12.6781 22C12.6781 20.343 13.9878 19 15.6038 19C17.2197 19 18.5295 20.343 18.5295 22C18.5295 23.657 17.2197 25 15.6038 25C13.9878 25 12.6781 23.657 12.6781 22Z" fill="#FF6347"/>
<path d="M25.9286 7.5C25.9286 11.0504 23.0504 13.9286 19.5 13.9286C15.9496 13.9286 13.0714 11.0504 13.0714 7.5C13.0714 3.9496 15.9496 1.07143 19.5 1.07143C23.0504 1.07143 25.9286 3.9496 25.9286 7.5Z" fill="#FF6347" stroke="white" stroke-width="2.14286"/>
<path d="M19.4856 10.2278C19.1285 10.2278 18.8069 10.1568 18.5207 10.0147C18.2346 9.87269 18.0053 9.67789 17.8328 9.43032C17.6604 9.18276 17.566 8.90069 17.5498 8.58414H18.2803C18.3087 8.8662 18.4365 9.09956 18.6638 9.28422C18.8931 9.46685 19.1671 9.55816 19.4856 9.55816C19.7413 9.55816 19.9686 9.4983 20.1675 9.37858C20.3684 9.25885 20.5256 9.09449 20.6393 8.88548C20.7549 8.67444 20.8128 8.436 20.8128 8.17018C20.8128 7.89826 20.7529 7.65577 20.6332 7.4427C20.5155 7.2276 20.3531 7.05816 20.1462 6.93438C19.9392 6.8106 19.7028 6.74769 19.4369 6.74566C19.2462 6.74363 19.0504 6.77306 18.8495 6.83393C18.6486 6.89278 18.4832 6.96888 18.3533 7.06222L17.6472 6.97699L18.0246 3.90881H21.2632V4.57845H18.6577L18.4386 6.41693H18.4751C18.6029 6.31547 18.7632 6.23125 18.956 6.16429C19.1488 6.09733 19.3497 6.06384 19.5587 6.06384C19.9402 6.06384 20.2801 6.15516 20.5784 6.33779C20.8787 6.51839 21.1141 6.76595 21.2845 7.08048C21.457 7.39501 21.5433 7.75418 21.5433 8.158C21.5433 8.55573 21.454 8.91084 21.2754 9.22334C21.0989 9.53381 20.8554 9.77935 20.5449 9.95995C20.2344 10.1385 19.8813 10.2278 19.4856 10.2278Z" fill="white"/>
</svg>
