<svg width="26" height="28" viewBox="0 0 26 28" fill="none" xmlns="http://www.w3.org/2000/svg">
<g filter="url(#filter0_d_327_359)">
<path fill-rule="evenodd" clip-rule="evenodd" d="M11 2C10.448 2 10 2.448 10 3H16C16 2.448 15.552 2 15 2H11ZM18 5H8V15C8 16.657 9.343 18 11 18H15C16.657 18 18 16.657 18 15V5ZM6 5V15C6 17.761 8.239 20 11 20H15C17.761 20 20 17.761 20 15V5H21C21.552 5 22 4.552 22 4C22 3.448 21.552 3 21 3H18C18 1.343 16.657 0 15 0H11C9.343 0 8 1.343 8 3H5C4.448 3 4 3.448 4 4C4 4.552 4.448 5 5 5H6ZM11 7C11.552 7 12 7.448 12 8V15C12 15.552 11.552 16 11 16C10.448 16 10 15.552 10 15V8C10 7.448 10.448 7 11 7ZM15 7C15.552 7 16 7.448 16 8V15C16 15.552 15.552 16 15 16C14.448 16 14 15.552 14 15V8C14 7.448 14.448 7 15 7Z" fill="#848484"/>
</g>
<defs>
<filter id="filter0_d_327_359" x="0" y="0" width="26" height="28" filterUnits="userSpaceOnUse" color-interpolation-filters="sRGB">
<feFlood flood-opacity="0" result="BackgroundImageFix"/>
<feColorMatrix in="SourceAlpha" type="matrix" values="0 0 0 0 0 0 0 0 0 0 0 0 0 0 0 0 0 0 127 0" result="hardAlpha"/>
<feOffset dy="4"/>
<feGaussianBlur stdDeviation="2"/>
<feComposite in2="hardAlpha" operator="out"/>
<feColorMatrix type="matrix" values="0 0 0 0 0 0 0 0 0 0 0 0 0 0 0 0 0 0 0.25 0"/>
<feBlend mode="normal" in2="BackgroundImageFix" result="effect1_dropShadow_327_359"/>
<feBlend mode="normal" in="SourceGraphic" in2="effect1_dropShadow_327_359" result="shape"/>
</filter>
</defs>
</svg>
