<svg width="31" height="26" viewBox="0 0 31 26" fill="none" xmlns="http://www.w3.org/2000/svg">
<g filter="url(#filter0_d_327_356)">
<path fill-rule="evenodd" clip-rule="evenodd" d="M8.50988 0.440704C9.53988 -0.0302963 10.7099 -0.127283 11.7999 0.166717C12.3399 0.309717 12.6499 0.857716 12.5099 1.39072C12.3699 1.92472 11.8199 2.24075 11.2899 2.09775C10.6399 1.92475 9.94996 1.98173 9.33996 2.25973C8.72996 2.53873 8.22993 3.01971 7.93993 3.62271C7.64993 4.22571 7.56997 4.91273 7.72997 5.56473C7.88997 6.21673 8.25992 6.79375 8.79992 7.19675C9.08992 7.41575 9.23993 7.77471 9.18993 8.13571C9.13993 8.49571 8.89993 8.79972 8.55993 8.92972C7.87993 9.18972 7.24997 9.59071 6.72997 10.1147C6.54997 10.2917 6.38998 10.4797 6.23998 10.6767C5.92998 11.0887 5.94999 11.4337 6.11999 11.7417C6.30999 12.1067 6.74999 12.4848 7.36999 12.6808C7.89999 12.8458 8.18989 13.4077 8.01989 13.9347C7.85989 14.4607 7.29989 14.7537 6.76989 14.5877C5.74989 14.2667 4.82997 13.5937 4.34997 12.6727C3.82997 11.6957 3.85988 10.5208 4.63988 9.47775C4.84988 9.20475 5.06993 8.94471 5.30993 8.70071C5.68993 8.32471 6.09992 7.99374 6.54992 7.71274C6.18992 7.20974 5.9299 6.64074 5.7799 6.03274C5.5199 4.92874 5.64988 3.76673 6.13988 2.74673C6.63988 1.72673 7.47988 0.910704 8.50988 0.440704ZM21.2999 2.25973C20.6899 1.98173 20 1.92475 19.35 2.09775C18.82 2.24075 18.27 1.92472 18.13 1.39072C17.99 0.857716 18.3 0.309717 18.84 0.166717C19.93 -0.127283 21.1 -0.0302963 22.13 0.440704C23.16 0.910704 24 1.72673 24.5 2.74673C24.99 3.76673 25.12 4.92874 24.86 6.03274C24.71 6.64074 24.45 7.20974 24.09 7.71274C24.54 7.99374 24.9499 8.32471 25.3299 8.70071C25.5699 8.94471 25.79 9.20475 26 9.47775C26.78 10.5208 26.8099 11.6957 26.2899 12.6727C25.8099 13.5937 24.89 14.2667 23.87 14.5877C23.34 14.7537 22.78 14.4607 22.62 13.9347C22.45 13.4077 22.7399 12.8458 23.2699 12.6808C23.8899 12.4848 24.3299 12.1067 24.5199 11.7417C24.6899 11.4337 24.7099 11.0887 24.3999 10.6767C24.2499 10.4797 24.0899 10.2917 23.9099 10.1147C23.3899 9.59071 22.7599 9.18972 22.0799 8.92972C21.7399 8.79972 21.4999 8.49571 21.4499 8.13571C21.3999 7.77471 21.55 7.41575 21.84 7.19675C22.38 6.79375 22.7499 6.21673 22.9099 5.56473C23.0699 4.91273 22.9899 4.22571 22.6999 3.62271C22.4099 3.01971 21.9099 2.53873 21.2999 2.25973ZM15.3199 3.99972C13.7199 3.99972 12.4299 5.2927 12.4299 6.8887C12.4299 8.4837 13.7199 9.77774 15.3199 9.77774C16.9199 9.77774 18.21 8.4837 18.21 6.8887C18.21 5.2927 16.9199 3.99972 15.3199 3.99972ZM18.5599 10.5467C19.5699 9.65072 20.21 8.3437 20.21 6.8887C20.21 4.1887 18.0199 1.99972 15.3199 1.99972C12.6199 1.99972 10.4299 4.1887 10.4299 6.8887C10.4299 8.3437 11.0699 9.65072 12.0799 10.5467C11.3899 10.8897 10.76 11.3427 10.21 11.8927C9.96995 12.1367 9.73991 12.3967 9.53991 12.6697C9.07991 13.2827 8.85989 13.9647 8.89989 14.6537C8.93989 15.3317 9.21999 15.9387 9.61999 16.4287C10.4 17.3937 11.72 17.9997 13.1 17.9997H17.5399C18.9199 17.9997 20.2399 17.3937 21.0199 16.4287C21.4199 15.9387 21.7 15.3317 21.74 14.6537C21.78 13.9647 21.56 13.2827 21.1 12.6697C20.9 12.3967 20.6699 12.1367 20.4299 11.8927C19.8799 11.3427 19.2499 10.8897 18.5599 10.5467ZM15.3199 11.7777C13.9299 11.7777 12.61 12.3277 11.63 13.3067C11.45 13.4837 11.2899 13.6717 11.1399 13.8687C10.9399 14.1407 10.8899 14.3668 10.8999 14.5428C10.9099 14.7308 10.9899 14.9457 11.1699 15.1667C11.5399 15.6247 12.27 15.9997 13.1 15.9997H17.5399C18.3699 15.9997 19.1 15.6247 19.47 15.1667C19.65 14.9457 19.73 14.7308 19.74 14.5428C19.75 14.3668 19.7 14.1407 19.5 13.8687C19.35 13.6717 19.1899 13.4837 19.0099 13.3067C18.0299 12.3277 16.7099 11.7777 15.3199 11.7777Z" fill="#827F7F"/>
</g>
<defs>
<filter id="filter0_d_327_356" x="0" y="0" width="30.6399" height="26" filterUnits="userSpaceOnUse" color-interpolation-filters="sRGB">
<feFlood flood-opacity="0" result="BackgroundImageFix"/>
<feColorMatrix in="SourceAlpha" type="matrix" values="0 0 0 0 0 0 0 0 0 0 0 0 0 0 0 0 0 0 127 0" result="hardAlpha"/>
<feOffset dy="4"/>
<feGaussianBlur stdDeviation="2"/>
<feComposite in2="hardAlpha" operator="out"/>
<feColorMatrix type="matrix" values="0 0 0 0 0 0 0 0 0 0 0 0 0 0 0 0 0 0 0.25 0"/>
<feBlend mode="normal" in2="BackgroundImageFix" result="effect1_dropShadow_327_356"/>
<feBlend mode="normal" in="SourceGraphic" in2="effect1_dropShadow_327_356" result="shape"/>
</filter>
</defs>
</svg>
