<svg width="28" height="28" viewBox="0 0 28 28" fill="none" xmlns="http://www.w3.org/2000/svg">
<g filter="url(#filter0_d_327_352)">
<path fill-rule="evenodd" clip-rule="evenodd" d="M13.2933 0.29325C13.6833 -0.09775 14.3172 -0.09775 14.7072 0.29325L17.0002 2.58625V2.00025C17.0002 1.44825 17.4482 1.00025 18.0002 1.00025H21.0002C21.5522 1.00025 22.0002 1.44825 22.0002 2.00025V7.58625L23.7072 9.29325C24.0982 9.68325 24.0982 10.3173 23.7072 10.7073C23.3172 11.0983 22.6832 11.0983 22.2932 10.7073L22.0002 10.4143V17.0002C22.0002 18.6572 20.6572 20.0002 19.0002 20.0002H9.00022C7.34322 20.0002 6.00022 18.6572 6.00022 17.0002V10.4143L5.70719 10.7073C5.31719 11.0983 4.68325 11.0983 4.29325 10.7073C3.90225 10.3173 3.90225 9.68325 4.29325 9.29325L6.29325 7.29325L13.2933 0.29325ZM8.00022 8.41425V17.0002C8.00022 17.5522 8.44822 18.0002 9.00022 18.0002H19.0002C19.5522 18.0002 20.0002 17.5522 20.0002 17.0002V8.41425L17.2933 5.70725L14.0002 2.41425L8.00022 8.41425ZM19.0002 4.58625L20.0002 5.58625V3.00025H19.0002V4.58625Z" fill="#686868"/>
</g>
<defs>
<filter id="filter0_d_327_352" x="0" y="0" width="28.0005" height="28" filterUnits="userSpaceOnUse" color-interpolation-filters="sRGB">
<feFlood flood-opacity="0" result="BackgroundImageFix"/>
<feColorMatrix in="SourceAlpha" type="matrix" values="0 0 0 0 0 0 0 0 0 0 0 0 0 0 0 0 0 0 127 0" result="hardAlpha"/>
<feOffset dy="4"/>
<feGaussianBlur stdDeviation="2"/>
<feComposite in2="hardAlpha" operator="out"/>
<feColorMatrix type="matrix" values="0 0 0 0 0 0 0 0 0 0 0 0 0 0 0 0 0 0 0.25 0"/>
<feBlend mode="normal" in2="BackgroundImageFix" result="effect1_dropShadow_327_352"/>
<feBlend mode="normal" in="SourceGraphic" in2="effect1_dropShadow_327_352" result="shape"/>
</filter>
</defs>
</svg>
