<svg width="30" height="30" viewBox="0 0 21 20" fill="none" xmlns="http://www.w3.org/2000/svg">
<path d="M4.17075 2.22357L4.30894 2.5H4.61798H17.507C19.1062 2.5 20.2944 3.98081 19.9469 5.5424L19.9469 5.54254L18.8359 10.5425C18.8359 10.5425 18.8359 10.5425 18.8359 10.5425C18.5817 11.6859 17.5675 12.5 16.396 12.5H7.604C6.4325 12.5 5.41829 11.6859 5.16411 10.5425L3.53912 3.22853L3.52571 3.16818L3.49801 3.11291L3.1055 2.3299C3.10542 2.32975 3.10535 2.3296 3.10527 2.32945C2.8515 1.82084 2.33219 1.5 1.76398 1.5H1C0.724142 1.5 0.5 1.27586 0.5 1C0.5 0.724142 0.724142 0.5 1 0.5H1.76398C2.71063 0.5 3.57651 1.03505 3.99979 1.88159C3.9998 1.88161 3.9998 1.88162 3.99981 1.88163L4.17075 2.22357ZM5.24701 3.5H4.62376L4.75891 4.10842L6.13989 10.3254L6.14 10.3259C6.29289 11.0109 6.90128 11.5 7.604 11.5H16.396C17.0987 11.5 17.7071 11.0109 17.86 10.3259L17.8601 10.3254L18.971 5.32553C19.1795 4.38823 18.4669 3.5 17.507 3.5H5.24701ZM8 15.5C7.17186 15.5 6.5 16.1719 6.5 17C6.5 17.8281 7.17186 18.5 8 18.5C8.82814 18.5 9.5 17.8281 9.5 17C9.5 16.1719 8.82814 15.5 8 15.5ZM5.5 17C5.5 15.6191 6.61914 14.5 8 14.5C9.38086 14.5 10.5 15.6191 10.5 17C10.5 18.3809 9.38086 19.5 8 19.5C6.61914 19.5 5.5 18.3809 5.5 17ZM16 15.5C15.1719 15.5 14.5 16.1719 14.5 17C14.5 17.8281 15.1719 18.5 16 18.5C16.8281 18.5 17.5 17.8281 17.5 17C17.5 16.1719 16.8281 15.5 16 15.5ZM13.5 17C13.5 15.6191 14.6191 14.5 16 14.5C17.3809 14.5 18.5 15.6191 18.5 17C18.5 18.3809 17.3809 19.5 16 19.5C14.6191 19.5 13.5 18.3809 13.5 17Z" stroke="dimgray"/>
<path d="M5 4H19L17.5 11H6.5L5 4Z" fill="none"/>
</svg>
