<svg width="20" height="20" viewBox="0 0 20 20" fill="none" xmlns="http://www.w3.org/2000/svg">
<path fill-rule="evenodd" clip-rule="evenodd" d="M10 2C5.582 2 2 5.582 2 10C2 14.418 5.582 18 10 18C14.418 18 18 14.418 18 10C18 5.582 14.418 2 10 2ZM0 10C0 4.4772 4.477 0 10 0C15.523 0 20 4.4772 20 10C20 15.523 15.523 20 10 20C4.477 20 0 15.523 0 10ZM7.172 7.172C7.562 6.781 8.195 6.781 8.586 7.172L10 8.586L11.414 7.172C11.805 6.781 12.438 6.781 12.828 7.172C13.219 7.562 13.219 8.195 12.828 8.586L11.414 10L12.828 11.414C13.219 11.805 13.219 12.438 12.828 12.828C12.438 13.219 11.805 13.219 11.414 12.828L10 11.414L8.586 12.828C8.195 13.219 7.562 13.219 7.172 12.828C6.781 12.438 6.781 11.805 7.172 11.414L8.586 10L7.172 8.586C6.781 8.195 6.781 7.562 7.172 7.172Z" fill="#FF6347"/>
</svg>
