<svg width="30" height="30" viewBox="0 0 21 20" fill="none" xmlns="http://www.w3.org/2000/svg">
<path fill-rule="evenodd" clip-rule="evenodd" d="M0 1C0 0.448 0.448 0 1 0H1.76398C2.89998 0 3.93902 0.64202 4.44702 1.65802L4.61798 2H17.507C19.426 2 20.852 3.777 20.435 5.651L19.324 10.651C19.019 12.023 17.802 13 16.396 13H7.604C6.198 13 4.98103 12.023 4.67603 10.651L3.05103 3.33698L2.65802 2.55298C2.48902 2.21398 2.14298 2 1.76398 2H1C0.448 2 0 1.552 0 1ZM5.24701 4L6.62799 10.217C6.72999 10.674 7.136 11 7.604 11H16.396C16.864 11 17.27 10.674 17.372 10.217L18.483 5.21698C18.622 4.59198 18.147 4 17.507 4H5.24701ZM8 16C7.448 16 7 16.448 7 17C7 17.552 7.448 18 8 18C8.552 18 9 17.552 9 17C9 16.448 8.552 16 8 16ZM5 17C5 15.343 6.343 14 8 14C9.657 14 11 15.343 11 17C11 18.657 9.657 20 8 20C6.343 20 5 18.657 5 17ZM16 16C15.448 16 15 16.448 15 17C15 17.552 15.448 18 16 18C16.552 18 17 17.552 17 17C17 16.448 16.552 16 16 16ZM13 17C13 15.343 14.343 14 16 14C17.657 14 19 15.343 19 17C19 18.657 17.657 20 16 20C14.343 20 13 18.657 13 17Z" fill="#FF6347"/>
<path d="M17.7501 5.24989C17.7501 6.30606 17.5891 7.56824 17.3681 8.56239C17.2933 8.89904 16.4324 9.86414 16.1529 9.87489C15.7969 9.88858 15.6082 10.1249 15.257 10.1249C14.9054 10.1249 14.5893 10.232 14.2501 10.2499C12.9632 10.3176 11.7463 10.4999 10.4445 10.4999C9.86119 10.4999 9.27785 10.4999 8.69452 10.4999C7.91606 10.4999 7.87507 9.87258 7.87507 9.31239C7.87507 8.72228 7.91186 8.21723 7.4723 7.77767C6.96129 7.26666 6.50007 7.87671 6.50007 6.90267C6.50007 6.4643 6.38665 5.86562 6.50702 5.44433C6.527 5.37438 8.05236 5.24989 8.18757 5.24989C9.1683 5.24989 10.4441 5.18675 11.4029 4.90267C12.3503 4.62193 13.7555 4.87489 14.7501 4.87489C15.3082 4.87489 15.8805 4.68905 15.7431 5.44433C15.6809 5.78665 15.431 6.05983 15.2501 6.34711C15.0668 6.63823 15.1251 6.96097 15.1251 7.2985C15.1251 7.90783 14.4203 7.8549 13.8473 7.97211C13.1408 8.11662 12.4454 8.37489 11.7501 8.37489C11.111 8.37489 10.5433 8.37755 9.93757 8.24294C9.65138 8.17935 9.43937 7.02069 9.69452 6.87489C10.4287 6.45534 11.2554 6.49989 12.0695 6.49989C12.6421 6.49989 13.4978 6.3726 13.9376 6.81239C14.3224 7.19725 14.1251 8.23451 14.1251 8.74989C14.1251 9.35814 14.5913 9.41764 14.7779 9.90267C15.0593 10.6345 15.4822 10.6283 14.4931 10.9374C13.9791 11.098 13.3524 11.1249 12.8126 11.1249C11.6993 11.1249 9.59778 11.5117 8.77785 10.7221C8.28351 10.2461 8.37507 9.50913 8.37507 8.88183C8.37507 8.14279 8.82709 7.97766 9.37507 7.59711C10.4812 6.82896 11.573 6.63531 12.8751 6.37489" stroke="#FF6347" stroke-width="3" stroke-linecap="round"/>
<path d="M7.125 5.375C6.98995 5.34124 6.64458 4.5512 6.625 4.375C6.58945 4.05501 5.88207 3.96069 5.625 3.875" stroke="#FF6347" stroke-width="3" stroke-linecap="round"/>
<path d="M16 9H16.25" stroke="#FF6347" stroke-width="3" stroke-linecap="round"/>
</svg>
