<svg width="10" height="10" viewBox="0 0 21 20" fill="none" xmlns="http://www.w3.org/2000/svg">
<path fill-rule="evenodd" clip-rule="evenodd" d="M0 1C0 0.448 0.448 0 1 0H1.76398C2.89998 0 3.93902 0.64202 4.44702 1.65802L4.61798 2H17.507C19.426 2 20.852 3.777 20.435 5.651L19.324 10.651C19.019 12.023 17.802 13 16.396 13H7.604C6.198 13 4.98103 12.023 4.67603 10.651L3.05103 3.33698L2.65802 2.55298C2.48902 2.21398 2.14298 2 1.76398 2H1C0.448 2 0 1.552 0 1ZM5.24701 4L6.62799 10.217C6.72999 10.674 7.136 11 7.604 11H16.396C16.864 11 17.27 10.674 17.372 10.217L18.483 5.21698C18.622 4.59198 18.147 4 17.507 4H5.24701ZM8 16C7.448 16 7 16.448 7 17C7 17.552 7.448 18 8 18C8.552 18 9 17.552 9 17C9 16.448 8.552 16 8 16ZM5 17C5 15.343 6.343 14 8 14C9.657 14 11 15.343 11 17C11 18.657 9.657 20 8 20C6.343 20 5 18.657 5 17ZM16 16C15.448 16 15 16.448 15 17C15 17.552 15.448 18 16 18C16.552 18 17 17.552 17 17C17 16.448 16.552 16 16 16ZM13 17C13 15.343 14.343 14 16 14C17.657 14 19 15.343 19 17C19 18.657 17.657 20 16 20C14.343 20 13 18.657 13 17Z" fill="white"/>
</svg>
