<svg width="20" height="20" viewBox="0 0 20 20" fill="none" xmlns="http://www.w3.org/2000/svg">
<path fill-rule="evenodd" clip-rule="evenodd" d="M6.17284 0.760885C8.20684 -0.0811148 10.4619 -0.229098 12.5879 0.340902C14.7149 0.909902 16.5929 2.16589 17.9339 3.91189C19.2739 5.65889 19.9999 7.7989 19.9999 9.9999V11.4999C19.9999 13.4329 18.4329 14.9999 16.4999 14.9999C15.2959 14.9999 14.2339 14.3919 13.6039 13.4659C12.6939 14.4119 11.4159 14.9999 9.99987 14.9999C7.23887 14.9999 4.99987 12.7609 4.99987 9.9999C4.99987 7.2389 7.23887 4.9999 9.99987 4.9999C11.1259 4.9999 12.1639 5.3719 12.9999 5.9999C12.9999 5.4479 13.4479 4.9999 13.9999 4.9999C14.5519 4.9999 14.9999 5.4479 14.9999 5.9999V11.4999C14.9999 12.3279 15.6719 12.9999 16.4999 12.9999C17.3279 12.9999 17.9999 12.3279 17.9999 11.4999V9.9999C17.9999 8.2389 17.4189 6.5269 16.3469 5.1299C15.2749 3.7329 13.7719 2.72791 12.0709 2.27291C10.3699 1.81691 8.5659 1.93491 6.9389 2.60891C5.3119 3.28291 3.95189 4.4749 3.07189 5.9999C2.19089 7.5249 1.83886 9.29791 2.06786 11.0439C2.29786 12.7899 3.09789 14.4119 4.34289 15.6569C5.58789 16.9019 7.20986 17.7019 8.95586 17.9319C10.7019 18.1609 12.4749 17.8089 13.9999 16.9279C14.4779 16.6519 15.0899 16.8159 15.3659 17.2939C15.6419 17.7729 15.4779 18.3839 14.9999 18.6599C13.0939 19.7609 10.8769 20.2019 8.69488 19.9139C6.51188 19.6269 4.48589 18.6279 2.92889 17.0709C1.37189 15.5139 0.37287 13.4879 0.0858698 11.3049C-0.20213 9.12289 0.238898 6.9059 1.3399 4.9999C2.4399 3.0939 4.13884 1.60389 6.17284 0.760885ZM12.9999 9.9999C12.9999 8.3429 11.6569 6.9999 9.99987 6.9999C8.34287 6.9999 6.99987 8.3429 6.99987 9.9999C6.99987 11.6569 8.34287 12.9999 9.99987 12.9999C11.6569 12.9999 12.9999 11.6569 12.9999 9.9999Z" fill="#838383"/>
</svg>
