<svg width="20" height="17" viewBox="0 0 20 17" fill="none" xmlns="http://www.w3.org/2000/svg">
<path d="M8.80445 1.92597L8.80353 1.92505C6.90952 0.0256026 3.82649 0.0242373 1.92117 1.92544C0.0260723 3.82739 0.0263503 6.90931 1.92156 8.80996L8.11026 15.0016C8.1104 15.0017 8.11054 15.0019 8.11068 15.002C9.15551 16.0413 10.8396 16.0413 11.8844 15.002C11.8846 15.0019 11.8847 15.0017 11.8848 15.0016L18.0735 8.80996L8.80445 1.92597ZM8.80445 1.92597L9.64442 2.76397L9.99734 3.11606M8.80445 1.92597L9.99734 3.11606M9.99734 3.11606L10.3505 2.76418M9.99734 3.11606L10.3505 2.76418M10.3505 2.76418L11.1904 1.92719L11.1917 1.92597M10.3505 2.76418L11.1917 1.92597M11.1917 1.92597C13.0857 0.0256092 16.1686 0.0242721 18.0739 1.92644M11.1917 1.92597L18.0739 1.92644M18.0739 1.92644C19.9688 3.82719 19.9688 6.90877 18.074 8.80953L18.0739 1.92644Z" fill="black" stroke="black"/>
</svg>
