<svg width="20" height="20" viewBox="0 0 20 20" fill="none" xmlns="http://www.w3.org/2000/svg">
<path fill-rule="evenodd" clip-rule="evenodd" d="M9.29325 0.29325C9.68325 -0.09775 10.3172 -0.09775 10.7072 0.29325L19.7072 9.29325C20.0982 9.68325 20.0982 10.3173 19.7072 10.7073C19.3172 11.0983 18.6832 11.0983 18.2932 10.7073L18.0002 10.4143V17.0002C18.0002 18.6572 16.6572 20.0002 15.0002 20.0002H5.00022C3.34322 20.0002 2.00022 18.6572 2.00022 17.0002V10.4143L1.70719 10.7073C1.31719 11.0983 0.68325 11.0983 0.29325 10.7073C-0.09775 10.3173 -0.09775 9.68325 0.29325 9.29325L2.29325 7.29325L9.29325 0.29325ZM4.00022 8.41425V17.0002C4.00022 17.5522 4.44822 18.0002 5.00022 18.0002H15.0002C15.5522 18.0002 16.0002 17.5522 16.0002 17.0002V8.41425L10.0002 2.41425L4.00022 8.41425Z" fill="dimgray"/>
</svg>
