<svg width="30" height="30" viewBox="0 0 18 18" fill="none" xmlns="http://www.w3.org/2000/svg">
<path fill-rule="evenodd" clip-rule="evenodd" d="M0 3C0 1.343 1.34 0 3 0H5C6.66 0 8 1.343 8 3V5C8 6.657 6.66 8 5 8H3C1.34 8 0 6.657 0 5V3ZM3 2C2.45 2 2 2.448 2 3V5C2 5.552 2.45 6 3 6H5C5.55 6 6 5.552 6 5V3C6 2.448 5.55 2 5 2H3ZM10 3C10 1.343 11.34 0 13 0H15C16.66 0 18 1.343 18 3V5C18 6.657 16.66 8 15 8H13C11.34 8 10 6.657 10 5V3ZM13 2C12.45 2 12 2.448 12 3V5C12 5.552 12.45 6 13 6H15C15.55 6 16 5.552 16 5V3C16 2.448 15.55 2 15 2H13ZM0 13C0 11.343 1.34 10 3 10H5C6.66 10 8 11.343 8 13V15C8 16.657 6.66 18 5 18H3C1.34 18 0 16.657 0 15V13ZM3 12C2.45 12 2 12.448 2 13V15C2 15.552 2.45 16 3 16H5C5.55 16 6 15.552 6 15V13C6 12.448 5.55 12 5 12H3ZM12.5 12C12.22 12 12 12.224 12 12.5C12 12.776 12.22 13 12.5 13C12.78 13 13 12.776 13 12.5C13 12.224 12.78 12 12.5 12ZM10 12.5C10 11.119 11.12 10 12.5 10C13.88 10 15 11.119 15 12.5C15 13.881 13.88 15 12.5 15C11.12 15 10 13.881 10 12.5ZM17 10C17.55 10 18 10.448 18 11V15C18 16.657 16.66 18 15 18H11C10.45 18 10 17.552 10 17C10 16.448 10.45 16 11 16H15C15.55 16 16 15.552 16 15V11C16 10.448 16.45 10 17 10Z" fill="#FF6347"/>
<path d="M4.49981 2.4375C4.30629 2.4375 4.13198 2.375 3.94078 2.375C3.73372 2.375 3.78427 2.45481 3.62481 2.54861C3.40584 2.67741 3.19435 2.99353 3.09356 3.21528C2.98484 3.45445 3.0131 3.98414 2.99981 4.25C2.98239 4.59832 2.8879 4.875 3.28453 4.875C3.55903 4.875 4.10377 4.97697 4.34356 4.84375C4.6556 4.67039 4.55247 4.23835 4.73592 3.98611C4.87594 3.79359 4.68105 3.38942 4.81231 3.15972C4.95781 2.90509 5.21788 3.67018 5.24981 3.75" stroke="#FF6347" stroke-width="3" stroke-linecap="round"/>
<path d="M4.5625 4.75C4.89213 4.75 4.98674 5.05587 5.25 5.1875" stroke="#FF6347" stroke-width="3" stroke-linecap="round"/>
<path d="M16.0623 1.9375C15.4279 2.03265 14.9194 2.25 14.281 2.25C14.1429 2.25 13.2574 2.18283 13.2498 2.3125C13.2258 2.71995 13.5218 3.75742 13.2012 4.01389C12.9599 4.20695 13.0793 4.51506 13.1283 4.80903C13.1751 5.08996 13.8923 5.125 14.1109 5.125C14.382 5.125 14.8748 5.38575 14.8748 4.97222C14.8748 4.77462 14.9315 4.28416 15.1248 4.1875" stroke="#FF6347" stroke-width="3" stroke-linecap="round"/>
<path d="M5.625 13.125C5.625 12.9547 5.49103 12.75 5.3125 12.75C5.04521 12.75 4.8775 12.6596 4.62847 12.6285C4.38071 12.5975 4.16183 12.4178 3.90625 12.3785C3.63659 12.337 3.33558 12.375 3.0625 12.375C2.76586 12.375 2.0625 12.4293 2.0625 12.8438C2.0625 13.2806 2.03327 13.6147 2.23611 14C2.29541 14.1127 2.44933 14.4296 2.5625 14.4862C2.76234 14.5861 2.92615 14.7703 3.09722 14.8681C3.18151 14.9163 3.49296 14.9375 3.59375 14.9375C3.7026 14.9375 3.68481 15.0376 3.78125 15.0591C3.86799 15.0783 3.97378 15.0625 4.0625 15.0625C4.28373 15.0625 5.125 15.3058 5.125 14.9688C5.125 14.7746 5.1581 14.5701 5.0625 14.4028C4.96194 14.2268 4.83952 13.9139 4.6875 13.8125" stroke="#FF6347" stroke-width="3" stroke-linecap="round"/>
</svg>
