<svg width="14" height="20" viewBox="0 0 14 20" fill="none" xmlns="http://www.w3.org/2000/svg">
<path fill-rule="evenodd" clip-rule="evenodd" d="M7 2C4.239 2 2 4.239 2 7C2 9.861 3.37 12.658 4.828 14.806C5.547 15.867 6.26902 16.741 6.80902 17.348C6.87602 17.423 6.939 17.493 7 17.559C7.061 17.493 7.12398 17.423 7.19098 17.348C7.73098 16.741 8.453 15.867 9.172 14.806C10.63 12.658 12 9.861 12 7C12 4.239 9.761 2 7 2ZM7 19C6.312 19.726 6.31201 19.726 6.31201 19.725L6.30902 19.723L6.30499 19.719L6.289 19.703C6.275 19.69 6.25599 19.672 6.23199 19.648C6.18299 19.6 6.11398 19.531 6.02698 19.442C5.85298 19.265 5.60798 19.007 5.31598 18.678C4.73098 18.022 3.953 17.079 3.172 15.929C1.63 13.655 0 10.453 0 7C0 3.134 3.134 0 7 0C10.866 0 14 3.134 14 7C14 10.453 12.37 13.655 10.828 15.929C10.047 17.079 9.26902 18.022 8.68402 18.678C8.39202 19.007 8.14702 19.265 7.97302 19.442C7.88602 19.531 7.81701 19.6 7.76801 19.648C7.74401 19.672 7.725 19.69 7.711 19.703L7.69501 19.719L7.69098 19.723L7.68903 19.725C7.68903 19.725 7.688 19.726 7 19ZM7 19L7.68799 19.726C7.30199 20.091 6.69701 20.091 6.31201 19.725L7 19ZM7 6C6.448 6 6 6.448 6 7C6 7.552 6.448 8 7 8C7.552 8 8 7.552 8 7C8 6.448 7.552 6 7 6ZM4 7C4 5.343 5.343 4 7 4C8.657 4 10 5.343 10 7C10 8.657 8.657 10 7 10C5.343 10 4 8.657 4 7Z" fill="white"/>
<path d="M10.1251 8.25C10.1251 9.46933 10.3817 11.0016 10.1182 12.1875C10.0856 12.3343 9.94207 12.4425 9.81265 12.5C9.49463 12.6413 9.4548 12.9527 9.29182 13.2222C9.07909 13.574 8.75234 13.7806 8.59737 14.125C8.35507 14.6634 8.04697 15.8403 7.43765 16.1111C6.43154 16.5583 6.19615 15.2188 5.97237 14.5972C5.82216 14.18 5.53581 13.7279 5.31959 13.3264C5.2247 13.1502 5.20676 12.8754 5.04182 12.75C4.87539 12.6235 4.68048 12.5444 4.56265 12.3611C4.0435 11.5535 3.96207 10.4885 3.5557 9.625C3.25259 8.98089 3.12515 8.28524 3.12515 7.56944C3.12515 7.22121 2.91373 6.93055 2.77793 6.625C2.65489 6.34816 2.72052 5.78564 2.75709 5.49306C2.81131 5.05934 3.21098 4.95697 3.25015 4.5C3.3015 3.90087 3.7315 3.97034 4.00015 3.59722C4.2845 3.2023 4.2552 3.125 4.75015 3.125C5.06265 3.125 5.37515 3.125 5.68765 3.125C6.36589 3.125 7.04413 3.125 7.72237 3.125C8.56355 3.125 9.10048 3.66933 9.88904 3.75694C10.869 3.86583 10.8751 4.55369 10.8751 5.47222C10.8751 5.77628 10.8453 6.03465 11.0001 6.30556C11.1741 6.60992 11.0812 6.89395 11.1321 7.25C11.2387 7.99617 11.2501 8.72679 11.2501 9.5" stroke="white" stroke-width="3" stroke-linecap="round"/>
<path d="M5.5 10.375H9.375" stroke="white" stroke-width="3" stroke-linecap="round"/>
<path d="M8.625 11.5C8.21613 11.5511 7.95034 11.955 7.5 12C7.12074 12.0379 6.54791 12.4264 6.25 12.625" stroke="white" stroke-width="3" stroke-linecap="round"/>
</svg>
