<svg width="30" height="30" viewBox="0 0 74 79" fill="none" xmlns="http://www.w3.org/2000/svg">
<path fill-rule="evenodd" clip-rule="evenodd" d="M7.52875 36.5116H21.9984C22.4657 27.2377 24.7076 18.6502 28.3113 12.1219C17.303 15.3349 8.98192 24.8571 7.52875 36.5116ZM36.5117 12.7973C32.74 17.9783 29.8739 26.4052 29.3116 36.5116H43.7117C43.1495 26.4052 40.2834 17.9783 36.5117 12.7973ZM43.7117 43.814H29.3116C29.8739 53.9204 32.74 62.3473 36.5117 67.5283C40.2834 62.3473 43.1495 53.9204 43.7117 43.814ZM28.3113 68.2038C24.7076 61.6755 22.4657 53.088 21.9984 43.814H7.52875C8.98192 55.4685 17.303 64.9907 28.3113 68.2038ZM44.7121 68.2038C48.3158 61.6755 50.5577 53.088 51.025 43.814H65.4946C64.0415 55.4685 55.7204 64.9907 44.7121 68.2038ZM65.4946 36.5116H51.025C50.5577 27.2377 48.3158 18.6502 44.7121 12.1219C55.7204 15.3349 64.0415 24.8571 65.4946 36.5116ZM0 40.1628C0 19.9974 16.3463 3.65112 36.5117 3.65112C56.6771 3.65112 73.0234 19.9974 73.0234 40.1628C73.0234 60.3282 56.6771 76.6745 36.5117 76.6745C16.3463 76.6745 0 60.3282 0 40.1628Z" fill="#FF6145"/>
<rect x="61.8483" y="-0.11052" width="6.70184" height="90.7616" rx="3.35092" transform="rotate(35.7424 61.8483 -0.11052)" fill="#FF6145" stroke="#E6E6E6" stroke-width="2.1907"/>
</svg>
