<svg width="16" height="20" viewBox="0 0 16 20" fill="none" xmlns="http://www.w3.org/2000/svg">
<path fill-rule="evenodd" clip-rule="evenodd" d="M3 5C3 2.239 5.239 0 8 0C10.761 0 13 2.239 13 5V6.41602C14.766 7.18802 16 8.949 16 11V15C16 17.761 13.761 20 11 20H5C2.239 20 0 17.761 0 15V11C0 8.949 1.234 7.18802 3 6.41602V5ZM5 6H11V5C11 3.343 9.657 2 8 2C6.343 2 5 3.343 5 5V6ZM5 8C4.739 8 4.48802 8.03299 4.24902 8.09399C2.95502 8.42799 2 9.603 2 11V15C2 16.657 3.343 18 5 18H11C12.657 18 14 16.657 14 15V11C14 9.603 13.045 8.42799 11.751 8.09399C11.512 8.03299 11.261 8 11 8H5ZM8 11C8.552 11 9 11.448 9 12V14C9 14.552 8.552 15 8 15C7.448 15 7 14.552 7 14V12C7 11.448 7.448 11 8 11Z" fill="#838383"/>
</svg>
