<svg width="21" height="21" viewBox="0 0 21 21" fill="none" xmlns="http://www.w3.org/2000/svg">
<path fill-rule="evenodd" clip-rule="evenodd" d="M8.62335 15.9281C4.52302 16.0762 1.07919 12.8723 0.931216 8.773C0.783206 4.67267 3.98708 1.22884 8.08741 1.08083C12.1867 0.932851 15.6305 4.13672 15.7785 8.23705C15.8395 9.92595 15.3312 11.5053 14.4258 12.7868L19.9818 17.9558C20.3867 18.3314 20.4095 18.9649 20.0328 19.3688C19.6572 19.7736 19.0237 19.7965 18.6198 19.4198L13.0637 14.2509C11.8508 15.2463 10.3123 15.8672 8.62335 15.9281ZM2.92991 8.70085C3.03806 11.6969 5.55416 14.0376 8.5512 13.9295C10.0492 13.8754 11.3825 13.2209 12.3294 12.2021C13.2773 11.1842 13.8339 9.80722 13.7798 8.3092C13.6717 5.31215 11.1556 2.97137 8.15955 3.07952C5.1625 3.18771 2.82173 5.7038 2.92991 8.70085Z" fill="dimgray"/>
</svg>
