<svg width="24" height="24" viewBox="0 0 24 24" fill="none" xmlns="http://www.w3.org/2000/svg">
<path fill-rule="evenodd" clip-rule="evenodd" d="M17.8918 7.8371C18.3518 6.7491 17.2518 5.65309 16.1718 6.11409L2.8018 11.7851C1.6818 12.2581 1.75177 13.8611 2.90177 14.2411L7.58171 15.7851C7.88171 15.8851 8.12172 16.1211 8.22172 16.4221L9.76176 21.1011C10.1418 22.2521 11.7517 22.3181 12.2217 21.2021L17.8918 7.8371ZM15.3918 4.2731C18.1318 3.1091 20.8917 5.8751 19.7317 8.6181L14.0618 21.9831C12.8718 24.7981 8.82173 24.6321 7.86173 21.7281L6.48173 17.5271L2.28178 16.1411C-0.628221 15.1821 -0.798231 11.1381 2.02177 9.9431L15.3918 4.2731Z" fill="#FF6347"/>
<path d="M8.00103 7.99984L18.5 5L16.4984 16.0011L10.5009 23.501L8.00085 16.001L0.499018 13.5002L8.00103 7.99984Z" fill="#FF6347"/>
</svg>
