<svg width="17" height="20" viewBox="0 0 17 20" fill="none" xmlns="http://www.w3.org/2000/svg">
<path fill-rule="evenodd" clip-rule="evenodd" d="M8.32529 2C6.11529 2 4.32529 3.791 4.32529 6C4.32529 8.209 6.11529 10 8.32529 10C10.5353 10 12.3253 8.209 12.3253 6C12.3253 3.791 10.5353 2 8.32529 2ZM11.9653 10.769C13.4053 9.67298 14.3253 7.945 14.3253 6C14.3253 2.686 11.6353 0 8.32529 0C5.01529 0 2.32529 2.686 2.32529 6C2.32529 7.945 3.25528 9.67298 4.68528 10.769C3.67528 11.214 2.7553 11.844 1.9653 12.636C1.3453 13.248 0.835266 13.939 0.425266 14.685C-0.324734 16.062 -0.01471 17.466 0.82529 18.458C1.64529 19.414 2.95529 20 4.32529 20H12.3253C13.7053 20 15.0053 19.414 15.8253 18.458C16.6653 17.466 16.9753 16.062 16.2253 14.685C15.8153 13.939 15.3053 13.248 14.6853 12.636C13.8953 11.844 12.9753 11.214 11.9653 10.769ZM8.32529 12C6.46529 12 4.68534 12.737 3.37534 14.05C2.89534 14.526 2.49528 15.064 2.18528 15.644C1.87528 16.206 1.97531 16.72 2.34531 17.16C2.75531 17.638 3.49529 18 4.32529 18H12.3253C13.1553 18 13.8953 17.638 14.3053 17.16C14.6753 16.72 14.7753 16.206 14.4653 15.644C14.1553 15.064 13.7552 14.526 13.2752 14.05C11.9652 12.737 10.1853 12 8.32529 12Z" fill="#838383"/>
</svg>
