<svg width="10" height="10" viewBox="0 0 14 20" fill="none" xmlns="http://www.w3.org/2000/svg">
<path fill-rule="evenodd" clip-rule="evenodd" d="M7 2C4.239 2 2 4.239 2 7C2 9.861 3.37 12.658 4.828 14.806C5.547 15.867 6.26902 16.741 6.80902 17.348C6.87602 17.423 6.939 17.493 7 17.559C7.061 17.493 7.12398 17.423 7.19098 17.348C7.73098 16.741 8.453 15.867 9.172 14.806C10.63 12.658 12 9.861 12 7C12 4.239 9.761 2 7 2ZM7 19C6.312 19.726 6.31201 19.726 6.31201 19.725L6.30902 19.723L6.30499 19.719L6.289 19.703C6.275 19.69 6.25599 19.672 6.23199 19.648C6.18299 19.6 6.11398 19.531 6.02698 19.442C5.85298 19.265 5.60798 19.007 5.31598 18.678C4.73098 18.022 3.953 17.079 3.172 15.929C1.63 13.655 0 10.453 0 7C0 3.134 3.134 0 7 0C10.866 0 14 3.134 14 7C14 10.453 12.37 13.655 10.828 15.929C10.047 17.079 9.26902 18.022 8.68402 18.678C8.39202 19.007 8.14702 19.265 7.97302 19.442C7.88602 19.531 7.81701 19.6 7.76801 19.648C7.74401 19.672 7.725 19.69 7.711 19.703L7.69501 19.719L7.69098 19.723L7.68903 19.725C7.68903 19.725 7.688 19.726 7 19ZM7 19L7.68799 19.726C7.30199 20.091 6.69701 20.091 6.31201 19.725L7 19ZM7 6C6.448 6 6 6.448 6 7C6 7.552 6.448 8 7 8C7.552 8 8 7.552 8 7C8 6.448 7.552 6 7 6ZM4 7C4 5.343 5.343 4 7 4C8.657 4 10 5.343 10 7C10 8.657 8.657 10 7 10C5.343 10 4 8.657 4 7Z" fill="#FF6347"/>
</svg>
