<svg width="10" height="10" viewBox="0 0 18 14" fill="none" xmlns="http://www.w3.org/2000/svg">
<path fill-rule="evenodd" clip-rule="evenodd" d="M0 1C0 0.448 0.448 0 1 0H2C2.552 0 3 0.448 3 1C3 1.552 2.552 2 2 2H1C0.448 2 0 1.552 0 1ZM5 1C5 0.448 5.448 0 6 0H17C17.552 0 18 0.448 18 1C18 1.552 17.552 2 17 2H6C5.448 2 5 1.552 5 1ZM0 7C0 6.448 0.448 6 1 6H2C2.552 6 3 6.448 3 7C3 7.552 2.552 8 2 8H1C0.448 8 0 7.552 0 7ZM5 7C5 6.448 5.448 6 6 6H17C17.552 6 18 6.448 18 7C18 7.552 17.552 8 17 8H6C5.448 8 5 7.552 5 7ZM0 13C0 12.448 0.448 12 1 12H2C2.552 12 3 12.448 3 13C3 13.552 2.552 14 2 14H1C0.448 14 0 13.552 0 13ZM5 13C5 12.448 5.448 12 6 12H17C17.552 12 18 12.448 18 13C18 13.552 17.552 14 17 14H6C5.448 14 5 13.552 5 13Z" fill="#FF6347"/>
</svg>
