<svg width="274" height="49" viewBox="0 0 274 49" fill="none" xmlns="http://www.w3.org/2000/svg">
<g filter="url(#filter0_d_327_365)">
<path d="M8.65484 13.564L27.0508 13.06L26.9428 15.472L21.9028 15.976L19.6708 37.144L15.7108 37.504L13.9108 16.768L8.87084 17.272L8.65484 13.564ZM28.6855 36.532L35.6695 25.372L29.4055 14.068L37.7215 13.06L40.8895 21.952L44.9935 13.06L49.1335 14.032L42.1495 25.156L49.2415 36.46L40.9255 37.504L37.0375 28.396L32.8255 37.54L28.6855 36.532ZM55.8964 37.504L53.8444 13.6L62.4124 13.06L59.8564 37.144L55.8964 37.504ZM84.2163 37L70.8603 37.324L69.1683 13.6L77.7363 13.06L75.1443 34.408L84.3603 33.292L84.2163 37ZM96.3081 37.864C94.1721 37.864 92.3961 37.204 90.9801 35.884C89.5881 34.564 88.7361 32.452 88.4241 29.548L86.6961 13.6L95.2641 13.06C94.2801 24.628 93.7881 30.592 93.7881 30.952C93.7881 33.688 95.0961 35.056 97.7121 35.056C98.9121 35.056 99.9321 34.696 100.772 33.976C101.612 33.232 102.044 31.948 102.068 30.124L102.392 13.42L105.992 13.24L104.912 30.16C104.6 35.296 101.732 37.864 96.3081 37.864ZM123.383 14.32C126.743 13.24 130.139 12.7 133.571 12.7C137.003 12.7 139.643 13.276 141.491 14.428C141.923 15.724 142.139 16.96 142.139 18.136C142.139 20.896 140.999 23.212 138.719 25.084C136.439 26.932 133.499 28.264 129.899 29.08L129.035 37.144L125.435 37.504L123.383 14.32ZM135.191 19.18C135.191 17.332 134.435 15.952 132.923 15.04C132.491 15.04 131.963 15.124 131.339 15.292L130.151 26.632C131.711 25.768 132.935 24.652 133.823 23.284C134.735 21.916 135.191 20.548 135.191 19.18ZM148.076 37.504L146.024 13.6L154.592 13.06L152.036 37.144L148.076 37.504ZM159.98 13.24L176.216 13.6L176.72 17.344L162.68 34.552L176.108 33.292L176.324 37L158.72 37.324L158.828 34.912L168.656 16.516L160.088 15.652L159.98 13.24ZM180.125 13.24L196.361 13.6L196.865 17.344L182.825 34.552L196.253 33.292L196.469 37L178.865 37.324L178.973 34.912L188.801 16.516L180.233 15.652L180.125 13.24ZM199.369 37L206.101 13.06L214.813 13.6L219.493 37L216.253 37.54L213.769 31.564L204.193 32.356L202.969 37.54L199.369 37ZM207.685 17.596L204.841 29.584L212.977 29.656L207.973 17.596H207.685ZM223.045 21.16C223.045 17.776 224.845 14.656 228.445 11.8L235.033 16.192C232.057 18.064 230.569 20.044 230.569 22.132C230.569 23.02 230.869 23.956 231.469 24.94C232.069 25.924 232.669 26.896 233.269 27.856C233.893 28.816 234.205 29.716 234.205 30.556C234.205 34.036 231.805 36.724 227.005 38.62L225.277 36.28C226.453 35.632 227.269 35.008 227.725 34.408C228.181 33.808 228.409 33.148 228.409 32.428C228.409 31.708 228.121 30.904 227.545 30.016C226.993 29.104 226.381 28.276 225.709 27.532C225.061 26.788 224.449 25.84 223.873 24.688C223.321 23.536 223.045 22.36 223.045 21.16Z" fill="#FF6347"/>
</g>
<defs>
<filter id="filter0_d_327_365" x="-4" y="0" width="282" height="57" filterUnits="userSpaceOnUse" color-interpolation-filters="sRGB">
<feFlood flood-opacity="0" result="BackgroundImageFix"/>
<feColorMatrix in="SourceAlpha" type="matrix" values="0 0 0 0 0 0 0 0 0 0 0 0 0 0 0 0 0 0 127 0" result="hardAlpha"/>
<feOffset dy="4"/>
<feGaussianBlur stdDeviation="2"/>
<feComposite in2="hardAlpha" operator="out"/>
<feColorMatrix type="matrix" values="0 0 0 0 0 0 0 0 0 0 0 0 0 0 0 0 0 0 0.25 0"/>
<feBlend mode="normal" in2="BackgroundImageFix" result="effect1_dropShadow_327_365"/>
<feBlend mode="normal" in="SourceGraphic" in2="effect1_dropShadow_327_365" result="shape"/>
</filter>
</defs>
</svg>
