<svg width="10" height="10" viewBox="0 0 20 20" fill="none" xmlns="http://www.w3.org/2000/svg">
<path fill-rule="evenodd" clip-rule="evenodd" d="M10 2C5.58 2 2 5.582 2 10C2 12.099 2.81 14.01 4.13 15.438C4.18 15.272 4.24997 15.11 4.33997 14.955C4.62997 14.429 4.99994 13.943 5.43994 13.513C5.87994 13.082 6.38004 12.72 6.92004 12.434C6.10004 11.651 5.58997 10.556 5.58997 9.33301C5.58997 6.91801 7.59 5 10 5C12.41 5 14.41 6.91801 14.41 9.33301C14.41 10.556 13.9 11.651 13.08 12.434C13.62 12.72 14.1201 13.082 14.5601 13.513C15.0001 13.943 15.37 14.429 15.66 14.955C15.75 15.11 15.82 15.272 15.87 15.438C17.19 14.01 18 12.099 18 10C18 5.582 14.42 2 10 2ZM13.9399 16.964C13.9799 16.764 14 16.576 14 16.41C14 16.136 13.95 15.987 13.92 15.931C13.72 15.573 13.47 15.24 13.16 14.944C12.33 14.129 11.19 13.667 10 13.667C8.81 13.667 7.66997 14.129 6.83997 14.944C6.52997 15.24 6.27996 15.573 6.07996 15.931C6.04996 15.987 6 16.136 6 16.41C6 16.576 6.02006 16.764 6.06006 16.964C7.22006 17.623 8.57 18 10 18C11.43 18 12.7799 17.623 13.9399 16.964ZM10 11.667C11.35 11.667 12.41 10.6 12.41 9.33301C12.41 8.06701 11.35 7 10 7C8.65 7 7.58997 8.06701 7.58997 9.33301C7.58997 10.6 8.65 11.667 10 11.667ZM0 10C0 4.477 4.48 0 10 0C15.52 0 20 4.477 20 10C20 13.557 18.14 16.68 15.35 18.451C13.8 19.432 11.97 20 10 20C8.03 20 6.20002 19.432 4.65002 18.451C1.86002 16.68 0 13.557 0 10Z" fill="#FF6347"/>
</svg>
